v -50.000 -100.000 -50.000
v 50.000 -100.000 -50.000
v 50.000 0.000 -50.000
v -50.000 0.000 -50.000
v -50.000 -100.000 50.000
v 50.000 -100.000 50.000
v 50.000 0.000 50.000
v -50.000 0.000 50.000
v -50.000 -100.000 -50.000
v -50.000 -100.000 50.000
v -50.000 0.000 50.000
v -50.000 0.000 -50.000
v 50.000 -100.000 -50.000
v 50.000 -100.000 50.000
v 50.000 0.000 50.000
v 50.000 0.000 -50.000
v -50.000 -100.000 -50.000
v 50.000 -100.000 -50.000
v 50.000 -100.000 50.000
v -50.000 -100.000 50.000
v -50.000 0.000 -50.000
v 50.000 0.000 -50.000
v 50.000 0.000 50.000
v -50.000 0.000 50.000
vt 0.000 0.000
vt 1.000 0.000
vt 1.000 1.000
vt 0.000 1.000
vt 0.000 0.000
vt 1.000 0.000
vt 1.000 1.000
vt 0.000 1.000
vt 0.000 0.000
vt 1.000 0.000
vt 1.000 1.000
vt 0.000 1.000
vt 0.000 0.000
vt 1.000 0.000
vt 1.000 1.000
vt 0.000 1.000
vt 0.000 0.000
vt 1.000 0.000
vt 1.000 1.000
vt 0.000 1.000
vt 0.000 0.000
vt 1.000 0.000
vt 1.000 1.000
vt 0.000 1.000
f 1/1 2/2 3/3 4/4
f 5/5 6/6 7/7 8/8
f 9/9 10/10 11/11 12/12
f 13/13 14/14 15/15 16/16
f 17/17 18/18 19/19 20/20
f 21/21 22/22 23/23 24/24
